<svg width="26.000000" height="30.000000" viewBox="0 0 26 30" fill="none" xmlns="http://www.w3.org/2000/svg" xmlns:xlink="http://www.w3.org/1999/xlink">
	<desc>
			Created with Pixso.
	</desc>
	<defs/>
	<path id="Vector" d="M15.78 17.81C21.41 17.81 26 22.44 26 28.12C26 29.17 25.12 30 24.14 30L1.85 30C0.81 30 0 29.17 0 28.12C0 22.44 4.52 17.81 10.21 17.81L15.78 17.81ZM2.78 27.18L23.15 27.18C22.69 23.49 19.55 20.62 15.78 20.62L10.21 20.62C6.38 20.62 3.25 23.49 2.78 27.18ZM13 15C8.87 15 5.57 11.66 5.57 7.5C5.57 3.39 8.87 0 13 0C17.06 0 20.42 3.39 20.42 7.5C20.42 11.66 17.06 15 13 15ZM13 2.81C10.38 2.81 8.35 4.92 8.35 7.5C8.35 10.13 10.38 12.18 13 12.18C15.55 12.18 17.64 10.13 17.64 7.5C17.64 4.92 15.55 2.81 13 2.81Z" fill="#1F0061" fill-opacity="0.300000" fill-rule="nonzero"/>
</svg>
