<svg width="26.622070" height="28.757812" viewBox="0 0 26.6221 28.7578" fill="none" xmlns="http://www.w3.org/2000/svg" xmlns:xlink="http://www.w3.org/1999/xlink">
	<desc>
			Created with Pixso.
	</desc>
	<defs/>
	<path id="@" d="M17.89 16.91Q17.87 16.05 18.23 14.68L19.92 8.19Q19.11 7.83 18.19 7.64Q17.27 7.45 16.07 7.45Q13.82 7.45 12.11 8.24Q10.4 9.03 9.25 10.29Q8.51 11.09 8 12.02Q7.72 12.53 7.51 13.09Q6.92 14.65 6.92 16.18Q6.92 17.22 7.18 18.13Q7.45 19.02 7.97 19.68Q8.1 19.85 8.25 20Q8.7 20.43 9.29 20.7Q10.09 21.07 11.16 21.07Q12.11 21.07 12.97 20.79Q13.4 20.65 13.8 20.45Q15.02 19.81 16.05 18.37Q16.27 19.61 17.01 20.28Q17.09 20.36 17.19 20.43Q17.23 20.46 17.27 20.49Q18.15 21.11 19.45 21.11Q20.36 21.11 21.19 20.86Q21.75 20.7 22.28 20.42Q22.67 20.22 23.03 19.96Q23.88 19.37 24.55 18.53Q25.52 17.33 26.06 15.68Q26.62 14.03 26.62 12.09Q26.62 10.16 26.13 8.52Q25.66 6.87 24.8 5.53Q24.17 4.56 23.38 3.74Q23.08 3.44 22.76 3.15Q22.24 2.7 21.68 2.31Q20.96 1.81 20.17 1.42Q20.12 1.4 20.07 1.37Q18.7 0.7 17.17 0.36Q17.11 0.34 17.06 0.33Q15.53 0 13.93 0Q11.98 0 10.19 0.5Q8.49 0.99 7.01 1.85Q6.93 1.9 6.85 1.95Q6.32 2.26 5.83 2.62Q4.87 3.32 4.04 4.18Q3.51 4.72 3.05 5.31Q2.41 6.14 1.88 7.06Q0.99 8.63 0.49 10.45Q0 12.27 0 14.23Q0 17.65 1.12 20.35Q2.16 22.85 3.92 24.63Q4.07 24.77 4.21 24.91Q4.6 25.28 5.01 25.61Q6.71 26.97 8.87 27.76Q11.55 28.75 14.68 28.75Q17.78 28.75 20.24 28.01Q22.7 27.29 24.64 25.98L24.17 24.8Q24.07 24.56 23.9 24.45Q23.84 24.41 23.77 24.39Q23.51 24.31 23.15 24.53Q21.62 25.45 19.52 26.04Q17.42 26.63 14.68 26.63Q12.11 26.63 9.86 25.84Q8.19 25.26 6.84 24.24Q6.37 23.89 5.94 23.49Q4.28 21.91 3.31 19.6Q2.35 17.29 2.35 14.23Q2.35 11.62 3.26 9.41Q4.11 7.34 5.53 5.79Q5.63 5.68 5.73 5.58Q6.33 4.96 7 4.44Q8.1 3.6 9.41 3.04Q9.9 2.82 10.42 2.65Q12.08 2.11 13.93 2.11Q16.12 2.11 18.02 2.74Q19.69 3.28 20.97 4.31Q21.15 4.46 21.32 4.61Q21.44 4.72 21.57 4.84Q22.79 6.03 23.51 7.73Q24.3 9.6 24.3 12.09Q24.3 13.65 23.95 14.95Q23.59 16.23 22.99 17.15Q22.39 18.07 21.59 18.58Q21.04 18.93 20.44 19.03Q20.18 19.08 19.92 19.08Q19.37 19.08 18.89 18.91Q18.75 18.86 18.63 18.78Q18.35 18.59 18.16 18.25Q17.91 17.76 17.89 16.91ZM15.57 9.5Q16.41 9.5 17.12 9.66L15.75 14.97Q15.44 16.14 14.99 16.91Q14.54 17.69 14 18.14Q13.48 18.58 12.91 18.77Q12.34 18.94 11.78 18.94Q10.95 18.94 10.41 18.55Q10.19 18.39 10.01 18.16Q9.43 17.38 9.43 16.09Q9.43 15.64 9.49 15.19Q9.59 14.41 9.88 13.65Q10.28 12.64 10.93 11.83Q11.04 11.69 11.16 11.55Q11.43 11.24 11.73 10.98Q12.34 10.44 13.09 10.07Q13.3 9.96 13.51 9.88Q14.46 9.5 15.57 9.5Z" fill="#1F0061" fill-opacity="0.300000" fill-rule="evenodd"/>
</svg>
